<?xml version="1.0" encoding="utf-8"?>
<!-- Generator: Adobe Illustrator 17.0.0, SVG Export Plug-In . SVG Version: 6.00 Build 0)  -->
<!DOCTYPE svg PUBLIC "-//W3C//DTD SVG 1.1//EN" "http://www.w3.org/Graphics/SVG/1.1/DTD/svg11.dtd">
<svg version="1.1" id="Layer_1" xmlns="http://www.w3.org/2000/svg" xmlns:xlink="http://www.w3.org/1999/xlink" x="0px" y="0px"
	 width="345.41px" height="518.842px" viewBox="0 0 345.41 518.842" enable-background="new 0 0 345.41 518.842"
	 xml:space="preserve">
<path fill-rule="evenodd" clip-rule="evenodd" d="M53.316,490.566h-7.433v-3.479h7.028v-2.866h-7.028v-3.249h7.433v-2.866h-7.433
	h-4.477v15.327h4.477h7.433V490.566z M59.967,480.972h6.764v-2.866h-6.764H55.49v15.327h4.478v-6.346h6.532v-2.866h-6.532V480.972z
	 M68.751,478.105v15.327h4.477v-15.327H68.751z M79.418,480.972v12.461h4.477v-12.461h4.281v-2.866h-4.281h-4.477h-4.009v2.866
	H79.418z M107.905,492.68v-10.184h-0.752v10.184H93.378v-13.823h2.268v-0.752h-2.268h-0.752v0.752v13.823v0.704v0.048h14.527h0.752
	V492.68z M98.703,478.857h7.168v-0.752h-7.168V478.857z M100.688,461.972h1.131v-3.09h-1.131V461.972z M102.662,461.053v4.426h1.131
	v-4.426H102.662z M103.793,467.094h-1.131v3.811h1.131V467.094z M104.737,463.755v9.371h1.131v-9.371H104.737z M106.741,466.017
	v9.371h1.131v-9.371H106.741z M108.741,468.905v10.284h1.131v-10.284H108.741z M107.872,476.91h-1.131v4.737h1.131V476.91z
	 M110.741,472.6v4.522h1.131V472.6H110.741z M105.868,484.464v-3.811h-1.131v3.811H105.868z M103.824,488.597v-6.741h-1.131v6.741
	H103.824z M101.819,486.592v-3.046h-1.131v3.046H101.819z M99.814,485.389v-4.736h-1.131v4.736H99.814z M97.72,482.305v-7.293
	h-1.131v7.293H97.72z M98.683,472.6v4.522h1.131V472.6H98.683z M100.688,470.419v3.874h1.131v-3.874H100.688z M28.482,478.105
	h-1.591h-4.035v15.327h4.035v-10.494l5.878,10.494h1.503h4.035v-15.327h-4.035v10.41L28.482,478.105z"/>
<g>
	<path d="M162.326,312.933c-0.305-0.306-0.626-0.596-0.96-0.87c-0.766-0.459-1.533-0.964-2.3-1.516
		c-1.811-0.939-3.867-1.469-6.047-1.469c-3.635,0-6.926,1.473-9.307,3.855c-2.382,2.382-3.855,5.673-3.855,9.307
		c0,3.635,1.473,6.926,3.855,9.308c2.382,2.382,5.673,3.855,9.307,3.855c3.635,0,6.926-1.474,9.307-3.855
		c2.382-2.382,3.855-5.673,3.855-9.308C166.181,318.606,164.708,315.315,162.326,312.933z M163.873,323.3
		c-0.096,0.187-0.233,0.356-0.409,0.488c-0.182,0.138-0.344,0.223-0.539,0.273c-0.143,0.037-0.301,0.055-0.497,0.061
		c0.148,0.207,0.286,0.42,0.286,0.791c0,0.325-0.061,0.582-0.179,0.801c-0.117,0.218-0.289,0.395-0.509,0.56
		c-0.209,0.156-0.404,0.249-0.637,0.302c-0.176,0.04-0.371,0.058-0.609,0.064l0.07,0.073c0.191,0.196,0.329,0.339,0.329,1.015
		c0,0.461-0.261,0.805-0.636,1.045c-0.455,0.291-1.084,0.427-1.604,0.427h-11.045c-0.683,0-1.246-0.136-1.729-0.356l0,0.001
		c-0.48-0.219-0.882-0.521-1.246-0.854l-0.083-0.076l0.08-0.079l0.465-0.465l0.071-0.072l0.076,0.068
		c0.31,0.274,0.653,0.509,1.032,0.675c0.376,0.164,0.792,0.261,1.25,0.261h11.215c0.205,0,0.403-0.024,0.579-0.069
		c0.172-0.044,0.325-0.109,0.446-0.191v0c0.133-0.09,0.213-0.199,0.247-0.312c0.029-0.099,0.024-0.204-0.013-0.301
		c-0.038-0.102-0.111-0.199-0.213-0.278c-0.163-0.127-0.403-0.212-0.703-0.211l-4.01,0.002v0c-0.113,0-0.239,0.005-0.377,0.009
		c-0.176,0.006-0.371,0.013-0.558,0.013c-0.692,0-1.391-0.09-1.391-0.599c0-0.51,0.59-0.608,1.219-0.608v0
		c0.193,0,0.387,0.009,0.566,0.017c0.15,0.007,0.291,0.013,0.413,0.013h5.075v0c0.222,0,0.422-0.003,0.599-0.026
		c0.172-0.021,0.325-0.061,0.462-0.132c0.183-0.094,0.313-0.226,0.386-0.368c0.058-0.112,0.082-0.232,0.071-0.345
		c-0.011-0.111-0.058-0.217-0.138-0.304c-0.089-0.096-0.223-0.172-0.402-0.21c-0.253-0.054-3.435-0.034-5.045-0.025l-0.837,0.004
		l0,0c-0.098,0-0.196,0.003-0.299,0.005c-0.13,0.003-0.27,0.007-0.395,0.007c-0.634,0-1.29-0.078-1.29-0.589
		c0-0.131,0.043-0.234,0.112-0.314c0.078-0.09,0.188-0.146,0.305-0.177l0,0c0.474-0.129,3.105-0.103,5.384-0.081
		c1.698,0.016,3.201,0.031,3.437-0.019c0.055-0.012,0.109-0.031,0.159-0.055c0.126-0.062,0.23-0.16,0.294-0.279v0
		c0.063-0.118,0.087-0.258,0.056-0.403c-0.011-0.053-0.03-0.107-0.056-0.16c-0.043-0.088-0.111-0.159-0.193-0.213v0
		c-0.1-0.066-0.221-0.111-0.347-0.139c-0.46-0.101-4.832-0.075-7.113-0.062l-1.163,0.006v0l-0.139,0.001l-0.144,0.001l-0.001,0
		c-0.416,0-0.805-0.047-0.805-0.494c0-0.552,0.663-0.629,1.307-0.629c0.109,0,0.232,0.003,0.35,0.005
		c0.094,0.002,0.187,0.004,0.285,0.004l0.722,0.005c1.518,0.013,4.656,0.04,4.94-0.059c0.152-0.053,0.263-0.151,0.332-0.269h0.001
		c0.059-0.101,0.088-0.218,0.085-0.335c-0.003-0.115-0.038-0.231-0.105-0.329c-0.078-0.114-0.202-0.207-0.371-0.254
		c-0.302-0.083-7.049-0.043-8.291-0.036l-0.169,0.001c-0.405,0.002-0.747-0.06-0.966-0.198c-0.084-0.054-0.153-0.12-0.2-0.198
		c-0.048-0.08-0.074-0.171-0.075-0.275v0c-0.001-0.161,0.062-0.35,0.201-0.57l0.005-0.008l0.005-0.005l2.278-2.584l0,0
		c0.111-0.15,0.158-0.338,0.158-0.528c0-0.168-0.037-0.337-0.099-0.482c-0.06-0.141-0.143-0.259-0.236-0.329
		c-0.057-0.043-0.117-0.068-0.177-0.068c-0.417,0-0.915,0.506-1.203,0.799l-0.074,0.075l-0.001,0.001
		c-0.285,0.285-0.597,0.555-0.918,0.81h-0.001c-0.325,0.257-0.657,0.499-0.982,0.727c-0.119,0.084-0.224,0.158-0.323,0.225
		c-0.102,0.069-0.212,0.14-0.348,0.223l-0.003,0.002l-1.059,0.604l-0.007,0.004l-0.005,0.002c-0.298,0.124-0.52,0.189-0.717,0.247
		c-0.368,0.108-0.649,0.191-1.203,0.61l-0.039,0.029c-0.204,0.154-0.397,0.3-0.579,0.483c-0.096,0.097-0.19,0.193-0.283,0.291
		c-0.09,0.096-0.179,0.194-0.265,0.295l-0.095,0.112l-0.078-0.124l-0.37-0.59l-0.044-0.07l0.056-0.06
		c0.352-0.38,0.754-0.77,1.188-1.096c0.44-0.331,0.914-0.599,1.404-0.732c0.174-0.047,0.279-0.072,0.349-0.089
		c0.057-0.013,0.088-0.021,0.115-0.031l0.001,0c0.035-0.013,0.076-0.034,0.162-0.078l0.001,0l0.254-0.129l0.001-0.001
		c0.141-0.07,0.265-0.137,0.385-0.205c0.123-0.07,0.242-0.142,0.367-0.221h0c0.481-0.302,0.962-0.641,1.424-1.008
		c0.449-0.357,0.878-0.736,1.267-1.128c0.446-0.449,0.848-0.696,1.2-0.8c0.364-0.107,0.677-0.063,0.935,0.067
		c0.255,0.129,0.456,0.342,0.599,0.577c0.182,0.299,0.275,0.638,0.275,0.882c0,0.934-0.179,1.109-0.733,1.652l-0.161,0.159
		l-0.721,0.765l0,0c-0.147,0.167-0.406,0.476-0.621,0.753c-0.09,0.115-0.172,0.224-0.234,0.315h5.561
		c0.321,0,0.631-0.005,0.942-0.01h0.001c0.649-0.01,1.313-0.02,1.92,0.009c0.445,0.021,0.836,0.188,1.113,0.458
		c0.274,0.266,0.439,0.632,0.439,1.057c0,0.452-0.133,0.668-0.261,0.874c0.257,0.003,0.487,0.014,0.701,0.043h0
		c0.269,0.037,0.511,0.104,0.74,0.222c0.204,0.105,0.369,0.248,0.493,0.413c0.175,0.232,0.272,0.51,0.292,0.792v0.001
		C164.059,322.762,164.002,323.049,163.873,323.3z"/>
	<path d="M180.448,313.876c-5.162,2.111-10.324,2.112-15.486,0c1.661,2.368,2.636,5.252,2.636,8.364c0,3.22-1.044,6.197-2.813,8.61
		c5.28-2.208,10.559-2.208,15.839,0.001c-1.769-2.413-2.813-5.39-2.813-8.611C177.812,319.128,178.787,316.244,180.448,313.876z"/>
	<path d="M343.993,0H1.417H0v1.417v446.34v1.417v1.417v66.833v1.417h1.417h342.576h1.417v-1.417v-66.833v-1.417v-1.417V1.417V0
		H343.993z M238.073,231.594h-7.171c-0.12-10.086-2.807-19.553-7.437-27.782l4.985-2.878l0.001,0.001l1.226-0.708
		C234.916,209.511,237.952,220.202,238.073,231.594z M223.461,260.792c4.628-8.229,7.316-17.696,7.437-27.781h5.768h1.404
		c-0.121,11.393-3.159,22.085-8.398,31.37l-0.002-0.001l0.001-0.002L223.461,260.792z M185.673,335.183l-0.021-0.011
		c0.005,0.003,0.01,0.004,0.015,0.007c-8.572-6.197-17.337-6.206-25.91-0.006c-2.016,1.053-4.308,1.648-6.739,1.648
		c-4.026,0-7.672-1.632-10.31-4.27c-2.638-2.638-4.27-6.284-4.27-10.31c0-4.026,1.632-7.671,4.27-10.31
		c2.638-2.638,6.284-4.27,10.31-4.27c3.472,0,6.661,1.214,9.166,3.241c7.014,4.15,14.029,4.149,21.043-0.001
		c2.504-2.026,5.693-3.24,9.165-3.24c4.026,0,7.671,1.632,10.31,4.27c2.638,2.638,4.27,6.284,4.27,10.31
		c0,4.026-1.632,7.672-4.27,10.31c-2.638,2.638-6.284,4.27-10.31,4.27c-2.425,0-4.712-0.593-6.725-1.641
		C185.669,335.18,185.671,335.182,185.673,335.183z M117.18,233.013c0.12,9.599,2.676,18.609,7.078,26.444l-1.18,0.681
		c-4.518-8.035-7.141-17.279-7.261-27.127h0.003v0.002H117.18z M124.259,205.152c-4.406,7.844-6.964,16.865-7.079,26.475h-0.004
		v-0.033h-1.354c0.12-9.847,2.746-19.089,7.263-27.126l0.005,0.003l-0.002,0.004L124.259,205.152z M144.325,184.567
		c-7.961,4.744-14.635,11.421-19.373,19.386l-0.001-0.001l0.015-0.026l-1.176-0.679c4.857-8.16,11.699-15.001,19.857-19.859
		l0.003,0.005l-0.002,0.001L144.325,184.567z M151.698,244.542h13.641v3.035H146.94v-2.662l9.296-10.301
		c1.664-1.857,2.795-3.327,3.387-4.419c0.586-1.091,0.885-2.209,0.885-3.347c0-1.417-0.412-2.609-1.238-3.574
		c-0.825-0.965-1.923-1.451-3.287-1.451c-1.963,0-3.407,0.506-4.339,1.511c-0.925,1.005-1.391,2.409-1.391,4.226h-3.686l-0.04-0.113
		c-0.067-2.442,0.745-4.499,2.435-6.162c1.69-1.664,4.033-2.495,7.021-2.495c2.549,0,4.578,0.745,6.095,2.229
		c1.511,1.491,2.269,3.381,2.269,5.683c0,1.544-0.459,3.094-1.377,4.652c-0.912,1.551-2.196,3.214-3.846,4.997l-7.466,8.092
		L151.698,244.542z M169.459,260.516c0.912-1.48,2.453-2.61,4.62-3.389l0.033-0.014c1.014-0.307,1.989-0.72,2.923-1.239
		c0.942-0.523,1.853-1.158,2.732-1.904l1.291-1.096l-0.128,1.688c-0.322,4.236-1.448,7.36-3.377,9.37
		c-1.934,2.016-4.627,2.891-8.077,2.622c-1.182,0.504-2.329,0.772-3.439,0.802c-0.39,0.009-0.714-0.299-0.722-0.689
		c-0.009-0.39,0.299-0.714,0.689-0.722c0.822-0.022,1.68-0.206,2.573-0.55C168.326,263.503,168.621,261.877,169.459,260.516z
		 M173.151,198.046c0.321-0.122,0.668-0.184,1.038-0.184c0.76,0,1.367,0.263,1.817,0.788c0.453,0.527,0.678,1.191,0.678,1.997
		c0,0.88-0.239,1.598-0.722,2.153c-0.481,0.554-1.123,0.832-1.925,0.832c-0.834,0-1.524-0.301-2.069-0.906
		c-0.547-0.602-0.818-1.454-0.818-2.552v-1.624c0-1.091,0.303-1.975,0.912-2.653c0.606-0.676,1.36-1.015,2.262-1.015
		c0.291,0,0.58,0.034,0.868,0.1c0.285,0.066,0.523,0.152,0.71,0.253l-0.245,0.884c-0.192-0.097-0.391-0.175-0.601-0.237
		c-0.208-0.06-0.453-0.09-0.732-0.09c-0.609,0-1.099,0.243-1.47,0.728c-0.373,0.487-0.559,1.121-0.559,1.903v0.135
		C172.545,198.339,172.83,198.17,173.151,198.046z M180.391,219.188v28.388h-3.84v-24.675l-5.809,0.08v-2.755L180.391,219.188z
		 M178.18,205.02l0.409-1.847v-0.954h1.151v1.011l-0.878,1.789H178.18z M199.859,280.75l0.681,1.18
		c-8.035,4.518-17.279,7.141-27.127,7.261v-0.001v-1.357v-0.005C183.013,287.707,192.024,285.152,199.859,280.75z M182.738,201.635
		v-1.198c0-0.642,0.144-1.136,0.432-1.482c0.288-0.346,0.68-0.519,1.176-0.519c0.496,0,0.89,0.173,1.177,0.519
		c0.288,0.346,0.433,0.84,0.433,1.482v1.198c0,0.644-0.143,1.138-0.429,1.482c-0.285,0.344-0.678,0.515-1.176,0.515
		c-0.497,0-0.891-0.172-1.18-0.517C182.882,202.771,182.738,202.277,182.738,201.635z M189.272,246.445v-3.181h3.84v3.374
		l-2.928,5.969h-2.276L189.272,246.445z M189.146,216.123v-0.839c0-0.722,0.197-1.311,0.592-1.765
		c0.394-0.457,0.924-0.684,1.588-0.684c0.662,0,1.191,0.227,1.583,0.684c0.392,0.454,0.589,1.043,0.589,1.765v0.839
		c0,0.731-0.197,1.323-0.589,1.773c-0.392,0.452-0.919,0.676-1.575,0.676c-0.669,0-1.201-0.224-1.595-0.676
		C189.344,217.446,189.146,216.855,189.146,216.123z M221.15,259.456c4.406-7.844,6.965-16.865,7.08-26.474h0.005v0.03h1.354
		c-0.12,9.847-2.745,19.09-7.261,27.126l-0.005-0.003l0.001-0.001L221.15,259.456z M204.78,289.275
		c-9.283,5.239-19.975,8.275-31.366,8.396V290.5c10.086-0.121,19.553-2.807,27.781-7.437l2.878,4.985l-0.001,0.001L204.78,289.275z
		 M173.093,280.771l-0.383,0.251l-0.386-0.248l-7.458-4.781c-0.329-0.211-0.424-0.649-0.213-0.977
		c0.211-0.329,0.649-0.424,0.977-0.213l7.071,4.534l6.925-4.531c0.327-0.214,0.766-0.122,0.98,0.205
		c0.214,0.327,0.122,0.766-0.205,0.98L173.093,280.771z M201.761,281.215L201.761,281.215l-0.677-1.176
		c7.961-4.744,14.635-11.421,19.373-19.384l0.001,0.001l-0.014,0.023l1.177,0.68c-4.857,8.161-11.698,15.002-19.857,19.861
		L201.761,281.215z M198.929,233.92v-1.617h10.232v1.617c-1.826,2.174-3.061,4.1-3.703,5.781c-0.642,1.678-1.103,3.713-1.387,6.101
		l-0.167,1.631h-2.047l0.167-1.631c0.29-2.38,0.855-4.511,1.692-6.388c0.84-1.876,1.986-3.706,3.44-5.494H198.929z M228.235,231.594
		v0.002h-0.005c-0.12-9.6-2.675-18.612-7.078-26.447l1.18-0.681c4.518,8.035,7.141,17.279,7.261,27.127H228.235z M221.615,203.248
		L221.615,203.248l-1.173,0.677c-4.744-7.961-11.42-14.635-19.385-19.374l0-0.001l0.024,0.014l0.68-1.177
		c8.161,4.857,15.002,11.698,19.861,19.857L221.615,203.248z M201.828,216.425l-0.022,0.042h-2.005
		c0.03-0.699-0.065-1.201-0.285-1.508c-0.22-0.307-0.602-0.462-1.148-0.462c-0.467,0-0.826,0.182-1.076,0.549
		c-0.247,0.365-0.372,0.919-0.372,1.658v3.195c0,0.749,0.132,1.308,0.399,1.672c0.265,0.367,0.654,0.549,1.166,0.549
		c0.502,0,0.851-0.145,1.049-0.434c0.197-0.29,0.285-0.784,0.26-1.486h2.005l0.022,0.045c0.01,1.169-0.27,2.052-0.834,2.646
		c-0.567,0.594-1.4,0.891-2.501,0.891s-1.982-0.337-2.641-1.013c-0.657-0.674-0.986-1.63-0.986-2.868v-3.178
		c0-1.233,0.317-2.19,0.954-2.871c0.637-0.679,1.488-1.018,2.557-1.018c1.131,0,1.987,0.302,2.564,0.906
		C201.509,214.346,201.808,215.239,201.828,216.425z M167.62,203.512h-1.151v-7.397l-1.741,0.024v-0.826l2.892-0.311V203.512z
		 M145.551,183.856l-0.679-1.176c8.035-4.518,17.278-7.141,27.125-7.261v1.354v0.005
		C162.397,176.898,153.386,179.453,145.551,183.856z M144.872,281.921l0.003,0.002l0.678-1.174
		c7.844,4.406,16.864,6.964,26.474,7.079v0.005h-0.032v1.354c-9.847-0.12-19.09-2.744-27.126-7.261L144.872,281.921z
		 M171.996,290.496v5.768v1.404c-11.393-0.121-22.085-3.159-31.37-8.398l0.001-0.002l0.002,0.001l3.586-6.21
		C152.445,287.687,161.911,290.375,171.996,290.496z M144.354,280.056l-0.026-0.015l-0.68,1.177
		c-8.161-4.857-15.002-11.698-19.861-19.857l0.006-0.003l0.002,0.003l1.174-0.678c4.744,7.96,11.421,14.634,19.385,19.372
		L144.354,280.056z M142.994,282.353l-2.88,4.989l-0.003-0.002l-0.706,1.223c-9.448-5.603-17.361-13.517-22.965-22.964l0.002-0.001
		l0.002,0.003l6.21-3.585C127.628,270.374,134.635,277.38,142.994,282.353z M206.002,288.568L206,288.565l0.003-0.002l-3.585-6.21
		c8.358-4.974,15.365-11.981,20.337-20.34l4.989,2.88l-0.002,0.003l1.223,0.706C223.362,275.051,215.448,282.964,206.002,288.568z
		 M205.299,177.265l0.706-1.223c9.448,5.603,17.361,13.517,22.965,22.964l-0.002,0.001l-0.002-0.003l-6.21,3.585
		c-4.974-8.358-11.981-15.365-20.34-20.337l2.88-4.989L205.299,177.265z M173.414,168.342v-1.404
		c11.393,0.121,22.085,3.159,31.37,8.398l-0.001,0.002l-0.002-0.001l-3.586,6.21c-8.229-4.628-17.695-7.316-27.781-7.437V168.342z
		 M173.382,176.773h0.032v-1.354c9.847,0.121,19.09,2.745,27.126,7.261l-0.004,0.007l-0.002-0.001l-0.677,1.172
		c-7.844-4.406-16.865-6.965-26.475-7.08V176.773z M172.709,183.804l0.383,0.251l7.308,4.781c0.327,0.214,0.419,0.653,0.205,0.98
		c-0.214,0.327-0.653,0.419-0.98,0.205l-6.925-4.531l-7.071,4.534c-0.329,0.211-0.766,0.115-0.977-0.213
		c-0.211-0.328-0.115-0.767,0.213-0.977l7.458-4.781L172.709,183.804z M171.996,166.937v7.172
		c-10.085,0.12-19.552,2.807-27.779,7.436l-2.88-4.989l0.001-0.001l-0.706-1.224C149.914,170.095,160.605,167.059,171.996,166.937z
		 M139.407,176.042l3.587,6.212c-8.358,4.973-15.364,11.98-20.337,20.338l-4.99-2.881l0.002-0.003l-1.221-0.705
		C122.049,189.558,129.962,181.645,139.407,176.042z M115.739,200.225L115.739,200.225l-0.001,0.003l6.212,3.586
		c-4.629,8.229-7.318,17.695-7.438,27.78h-5.768h-1.404C107.461,220.201,110.499,209.509,115.739,200.225z M114.508,233.011
		c0.12,10.086,2.807,19.553,7.437,27.781l-4.985,2.878l-0.001-0.001l-1.226,0.708c-5.239-9.283-8.275-19.975-8.396-31.366H114.508z
		 M342.575,516.007H2.835v-65.415h339.741V516.007z"/>
	<path d="M196.814,317.818c-1.132-1.132-2.695-1.832-4.422-1.832c-1.727,0-3.291,0.7-4.422,1.832
		c-1.132,1.132-1.832,2.695-1.832,4.422c0,1.727,0.7,3.291,1.832,4.422s2.695,1.832,4.422,1.832c1.727,0,3.291-0.7,4.422-1.832
		s1.832-2.695,1.832-4.422C198.646,320.513,197.946,318.95,196.814,317.818z M195.276,322.949h-2.885h-0.709v-0.709v-4.917h1.417
		v4.209h2.176V322.949z"/>
	<path d="M201.699,331.548c2.382-2.382,3.855-5.673,3.855-9.308c0-3.635-1.473-6.926-3.855-9.307
		c-2.382-2.382-5.673-3.855-9.307-3.855c-2.181,0-4.238,0.531-6.049,1.47c-0.765,0.551-1.531,1.056-2.296,1.514
		c-0.335,0.275-0.656,0.566-0.962,0.871c-2.382,2.382-3.855,5.673-3.855,9.307c0,3.635,1.473,6.926,3.855,9.308
		c2.382,2.382,5.673,3.855,9.307,3.855C196.026,335.403,199.318,333.93,201.699,331.548z M186.967,327.665
		c-1.388-1.388-2.247-3.306-2.247-5.425c0-2.118,0.859-4.036,2.247-5.424c1.388-1.388,3.306-2.247,5.424-2.247
		c2.118,0,4.037,0.859,5.425,2.247c1.388,1.388,2.247,3.306,2.247,5.424s-0.859,4.037-2.247,5.425
		c-1.388,1.388-3.306,2.247-5.425,2.247C190.273,329.912,188.355,329.053,186.967,327.665z"/>
</g>
<path d="M170.291,264.561c1.568-0.912,3.227-2.271,4.973-4.075c0.272-0.279,0.72-0.286,0.999-0.014
	c0.279,0.272,0.286,0.72,0.014,0.999c-1.443,1.491-2.84,2.699-4.188,3.623c1.823-0.239,3.304-0.953,4.445-2.142
	c1.446-1.508,2.383-3.797,2.81-6.865c-0.529,0.374-1.07,0.715-1.622,1.022c-1.035,0.575-2.102,1.028-3.2,1.36l0-0.002
	c-1.838,0.666-3.126,1.597-3.861,2.79c-0.598,0.969-0.841,2.139-0.731,3.506C170.049,264.699,170.17,264.631,170.291,264.561z"/>
</svg>
