<?xml version="1.0" encoding="utf-8"?>
<!-- Generator: Adobe Illustrator 16.0.0, SVG Export Plug-In . SVG Version: 6.00 Build 0)  -->
<!DOCTYPE svg PUBLIC "-//W3C//DTD SVG 1.1//EN" "http://www.w3.org/Graphics/SVG/1.1/DTD/svg11.dtd">
<svg version="1.1" id="Outline_Version" xmlns="http://www.w3.org/2000/svg" xmlns:xlink="http://www.w3.org/1999/xlink" x="0px"
	 y="0px" width="24px" height="24px" viewBox="0 0 24 24" enable-background="new 0 0 24 24" xml:space="preserve">
<g>
	<path d="M9.388,0.035C9.18-0.048,8.942,0.019,8.807,0.198c-0.136,0.178-0.136,0.425,0,0.604c2.486,3.279,2.625,8.45,0.407,11.429
		c-0.518-0.72-0.845-1.473-1.019-2.331C8.161,9.734,8.046,9.597,7.888,9.535c-0.156-0.062-0.336-0.04-0.474,0.059
		c-2.834,2.03-3.975,5.487-2.908,8.808C5.599,21.803,8.621,24,12.205,24c3.99,0,6.717-2.31,7.48-6.338
		C20.842,11.56,16.98,3.02,9.388,0.035z M18.703,17.476C18.037,20.986,15.669,23,12.205,23c-3.142,0-5.79-1.925-6.747-4.904
		c-0.69-2.148-0.497-5.098,1.956-7.23c0.288,0.897,0.754,1.716,1.41,2.488c0.094,0.109,0.229,0.173,0.373,0.176
		c0.147,0.014,0.281-0.058,0.379-0.165c2.556-2.824,2.87-7.933,0.937-11.713C16.653,4.913,19.707,12.179,18.703,17.476z"/>
	<path d="M12.705,14c-0.178,0-0.342,0.094-0.432,0.248s-0.091,0.342-0.004,0.497c0.354,0.631,0.045,1.343-0.171,1.711
		c-0.536,0.918-1.648,1.656-2.279,1.501c-0.165-0.038-0.336,0.008-0.458,0.124c-0.122,0.116-0.178,0.285-0.148,0.451
		C9.469,19.962,10.708,21,12.159,21c1.631,0,2.949-1.311,3-2.985c0.033-1.104-0.213-2.576-1.006-3.394
		C13.759,14.215,13.258,14,12.705,14z M12.159,20c-0.756,0-1.425-0.422-1.763-1.062c0.94-0.179,1.968-0.956,2.565-1.977
		c0.327-0.559,0.484-1.12,0.47-1.647c0.002,0.001,0.003,0.002,0.004,0.003c0.475,0.489,0.759,1.536,0.724,2.667
		C14.125,19.115,13.246,20,12.159,20z"/>
</g>
</svg>
