<svg height="512pt" viewBox="0 -14 512 512" width="512pt" xmlns="http://www.w3.org/2000/svg"><path d="m424.671875 53.421875c-.652344 0-1.300781-.058594-1.953125-.1875-.640625-.132813-1.269531-.332031-1.867188-.582031-.601562-.25-1.179687-.558594-1.730468-.917969-.550782-.363281-1.0625-.78125-1.519532-1.242187-1.859374-1.859376-2.921874-4.4375-2.921874-7.066407 0-.652343.0625-1.3125.191406-1.953125s.316406-1.269531.566406-1.878906c.25-.601562.5625-1.179688.921875-1.722656.359375-.546875.78125-1.058594 1.238281-1.515625 1.871094-1.863281 4.441406-2.929688 7.070313-2.929688 2.640625 0 5.210937 1.066407 7.070312 2.929688.472657.457031.878907.96875 1.25 1.515625.359375.542968.671875 1.121094.921875 1.722656.25.609375.4375 1.238281.566406 1.878906.132813.640625.191407 1.300782.191407 1.953125 0 2.628907-1.058594 5.207031-2.929688 7.066407-1.859375 1.859374-4.429687 2.929687-7.066406 2.929687zm0 0"/><path d="m502 0h-492c-5.523438 0-10 4.476562-10 10v66.847656c0 5.519532 4.476562 10 10 10h9.597656v387.097656c0 5.523438 4.476563 10 10 10h452.804688c5.523437 0 10-4.476562 10-10v-387.097656h9.597656c5.523438 0 10-4.480468 10-10v-66.847656c0-5.523438-4.476562-10-10-10zm-10 20v46.847656h-472v-13.425781h364.953125c5.523437 0 10-4.476563 10-10 0-5.519531-4.476563-10-10-10h-364.953125v-13.421875zm-224.003906 110.863281.261718 9.457031-8.90625-3.167968c-1.082031-.386719-2.21875-.578125-3.351562-.578125s-2.269531.191406-3.351562.578125l-8.90625 3.167968.261718-9.457031c.0625-2.296875-.667968-4.546875-2.070312-6.371093l-5.769532-7.496094 9.070313-2.675782c2.207031-.648437 4.121094-2.042968 5.421875-3.9375l5.34375-7.800781 5.34375 7.800781c1.300781 1.894532 3.214844 3.289063 5.421875 3.9375l9.070313 2.675782-5.769532 7.496094c-1.402344 1.824218-2.132812 4.074218-2.070312 6.371093zm-59.289063 240.242188c4.585938 5.085937 10.261719 11.453125 15.566407 17.457031 2.734374 3.09375 7.09375 4.1875 10.964843 2.757812 3.875-1.4375 6.46875-5.105468 6.527344-9.234374.355469-24.441407 3.859375-51.910157 10.867187-67.964844 7.855469 15.695312 17.914063 30.628906 29.980469 44.492187 15.25 17.527344 32.269531 40.386719 28.449219 61.742188-.046875.253906-.082031.507812-.109375.765625-2.9375 29.4375-29.386719 41.398437-51.140625 42.695312-23.609375 1.417969-51.695312-8.941406-57.488281-35-4-17.992187-1.660157-38.433594 6.382812-57.710937zm102.027344 92.839843c11.488281-10.546874 18.394531-24.421874 20.082031-40.453124 5.074219-29.566407-15.015625-57.207032-33.117187-78.007813-12.886719-14.8125-23.234375-30.921875-30.75-47.878906-2.214844-5-5.082031-10.4375-11.058594-11.703125-3.480469-.730469-7.023437.242187-9.722656 2.691406-15.046875 13.664062-20.886719 44.28125-23.109375 68.5625-2.097656-2.328125-3.875-4.28125-5.308594-5.839844-5.125-5.5625-7.460938-8.101562-12.683594-7.550781-3.210937.335937-6.074218 2.214844-7.664062 5.027344-15.21875 26.917969-20.539063 57.667969-14.597656 84.367187 2.84375 12.8125 9.164062 23 17.515624 30.785156h-56.449218v-114.1875c0-61.828124 50.300781-112.128906 112.128906-112.128906 61.824219 0 112.125 50.300782 112.125 112.128906v114.1875zm77.390625 0v-114.1875c0-72.855468-59.269531-132.128906-132.125-132.128906s-132.125 59.273438-132.125 132.128906v114.1875h-20.207031v-114.164062c0-84.015625 68.335937-152.367188 152.332031-152.367188s152.332031 68.351563 152.332031 152.367188v114.164062zm84.277344 0h-44.070313v-114.164062c0-95.042969-77.308593-172.367188-172.332031-172.367188s-172.332031 77.324219-172.332031 172.367188v114.164062h-44.070313v-377.101562h202.941406l-6.371093 9.296875-19.652344 5.796875c-3.164063.929688-5.664063 3.363281-6.683594 6.5-1.015625 3.136719-.425781 6.574219 1.585938 9.1875l12.496093 16.242188-.5625 20.488281c-.09375 3.296875 1.449219 6.425781 4.117188 8.367187 2.667969 1.9375 6.121094 2.433594 9.226562 1.328125l19.304688-6.863281 19.304688 6.867188c1.089843.386718 2.222656.578124 3.351562.578124 2.082031 0 4.144531-.652343 5.878906-1.910156 2.667969-1.941406 4.207032-5.070312 4.117188-8.367187l-.5625-20.484375 12.492187-16.242188c2.011719-2.617187 2.605469-6.054687 1.585938-9.191406s-3.519531-5.566406-6.683594-6.5l-19.652344-5.792969-6.371093-9.296875h202.941406zm0 0"/><path d="m373.679688 173.855469-.5625 20.488281c-.089844 3.296875 1.449218 6.429688 4.117187 8.367188s6.121094 2.433593 9.230469 1.328124l19.304687-6.863281 19.300781 6.863281c1.09375.390626 2.226563.578126 3.351563.578126 2.085937 0 4.148437-.648438 5.878906-1.90625 2.667969-1.941407 4.210938-5.070313 4.121094-8.367188l-.566406-20.488281 12.496093-16.242188c2.011719-2.613281 2.605469-6.050781 1.585938-9.1875s-3.519531-5.566406-6.683594-6.5l-19.652344-5.792969-11.582031-16.90625c-1.867187-2.722656-4.953125-4.347656-8.25-4.347656-3.300781 0-6.386719 1.625-8.25 4.347656l-11.582031 16.90625-19.652344 5.792969c-3.164062.933594-5.664062 3.363281-6.683594 6.5-1.019531 3.136719-.425781 6.574219 1.585938 9.1875zm21.324218-19.546875c2.207032-.652344 4.121094-2.042969 5.421875-3.941406l5.34375-7.796876 5.34375 7.796876c1.296875 1.898437 3.214844 3.289062 5.417969 3.941406l9.074219 2.671875-5.769531 7.5c-1.402344 1.824219-2.132813 4.074219-2.070313 6.371093l.261719 9.457032-8.90625-3.167969c-1.085938-.386719-2.21875-.578125-3.351563-.578125-1.136719 0-2.269531.191406-3.355469.578125l-8.902343 3.167969.257812-9.457032c.066407-2.296874-.667969-4.546874-2.070312-6.371093l-5.765625-7.5zm0 0"/><path d="m145.71875 141.925781-19.652344-5.796875-11.585937-16.902344c-1.863281-2.722656-4.949219-4.347656-8.246094-4.347656-3.300781 0-6.386719 1.625-8.25 4.347656l-11.585937 16.902344-19.652344 5.796875c-3.160156.929688-5.660156 3.363281-6.683594 6.5-1.015625 3.136719-.425781 6.574219 1.585938 9.1875l12.496093 16.242188-.5625 20.488281c-.09375 3.296875 1.449219 6.425781 4.117188 8.367188 2.667969 1.9375 6.121093 2.433593 9.230469 1.328124l19.300781-6.863281 19.304687 6.863281c1.09375.390626 2.226563.578126 3.351563.578126 2.085937 0 4.144531-.648438 5.878906-1.90625 2.667969-1.941407 4.210937-5.070313 4.117187-8.367188l-.5625-20.488281 12.496094-16.242188c2.007813-2.613281 2.601563-6.050781 1.582032-9.1875-1.015626-3.136719-3.515626-5.570312-6.679688-6.5zm-25.417969 22.554688c-1.402343 1.824219-2.132812 4.074219-2.070312 6.371093l.261719 9.457032-8.90625-3.167969c-1.085938-.386719-2.21875-.578125-3.351563-.578125-1.136719 0-2.269531.191406-3.351563.578125l-8.90625 3.167969.257813-9.457032c.0625-2.296874-.667969-4.546874-2.070313-6.371093l-5.765624-7.5 9.070312-2.671875c2.207031-.652344 4.121094-2.042969 5.421875-3.941406l5.34375-7.796876 5.34375 7.796876c1.300781 1.898437 3.214844 3.289062 5.417969 3.941406l9.074218 2.671875zm0 0"/></svg>