<?xml version="1.0" encoding="utf-8"?>
<!-- Generator: Adobe Illustrator 16.0.0, SVG Export Plug-In . SVG Version: 6.00 Build 0)  -->
<!DOCTYPE svg PUBLIC "-//W3C//DTD SVG 1.1//EN" "http://www.w3.org/Graphics/SVG/1.1/DTD/svg11.dtd">
<svg version="1.1" id="Outline_Version" xmlns="http://www.w3.org/2000/svg" xmlns:xlink="http://www.w3.org/1999/xlink" x="0px"
	 y="0px" width="24px" height="24px" viewBox="0 0 24 24" enable-background="new 0 0 24 24" xml:space="preserve">
<g>
	<path d="M14.013,15.723V2.459c0-1.379-1.122-2.5-2.5-2.5s-2.5,1.121-2.5,2.5v13.264c-1.241,0.831-2,2.237-2,3.736
		c0,2.481,2.019,4.5,4.5,4.5s4.5-2.019,4.5-4.5C16.013,17.96,15.253,16.554,14.013,15.723z M11.513,22.959c-1.93,0-3.5-1.57-3.5-3.5
		c0-1.241,0.671-2.401,1.75-3.026c0.154-0.089,0.25-0.254,0.25-0.433V2.459c0-0.827,0.673-1.5,1.5-1.5s1.5,0.673,1.5,1.5V16
		c0,0.179,0.095,0.344,0.25,0.433c1.08,0.625,1.75,1.785,1.75,3.026C15.013,21.389,13.442,22.959,11.513,22.959z"/>
	<path d="M12.013,18.051V7.459c0-0.276-0.224-0.5-0.5-0.5s-0.5,0.224-0.5,0.5v10.592c-0.581,0.207-1,0.757-1,1.408
		c0,0.827,0.673,1.5,1.5,1.5s1.5-0.673,1.5-1.5C13.013,18.808,12.593,18.258,12.013,18.051z M11.513,19.959
		c-0.276,0-0.5-0.225-0.5-0.5s0.224-0.5,0.5-0.5s0.5,0.225,0.5,0.5S11.789,19.959,11.513,19.959z"/>
</g>
</svg>
