<?xml version="1.0" encoding="utf-8"?>
<!-- Generator: Adobe Illustrator 16.0.0, SVG Export Plug-In . SVG Version: 6.00 Build 0)  -->
<!DOCTYPE svg PUBLIC "-//W3C//DTD SVG 1.1//EN" "http://www.w3.org/Graphics/SVG/1.1/DTD/svg11.dtd">
<svg version="1.1" id="Outline_Version" xmlns="http://www.w3.org/2000/svg" xmlns:xlink="http://www.w3.org/1999/xlink" x="0px"
	 y="0px" width="24px" height="24px" viewBox="0 0 24 24" enable-background="new 0 0 24 24" xml:space="preserve">
<g>
	<path d="M23.5,23H21v-9h2.5c0.216,0,0.407-0.139,0.475-0.344c0.067-0.205-0.004-0.43-0.178-0.558L21,11.031V7
		c0-0.276-0.224-0.5-0.5-0.5h-3C17.224,6.5,17,6.724,17,7v1.074l-4.703-3.476c-0.176-0.131-0.418-0.131-0.594,0l-11.5,8.5
		c-0.174,0.128-0.245,0.354-0.178,0.558C0.093,13.862,0.284,14,0.5,14H3v9H0.5C0.224,23,0,23.224,0,23.5S0.224,24,0.5,24h3h2h5h10h3
		c0.276,0,0.5-0.224,0.5-0.5S23.776,23,23.5,23z M18,7.5h2v2.792l-2-1.478V7.5z M12,5.622L21.982,13H20.5h-17H2.018L12,5.622z M6,23
		v-1h0.5h3H10v1H6z M9,21H7v-4h2V21z M11,23v-1.5c0-0.276-0.224-0.5-0.5-0.5H10v-4.5c0-0.276-0.224-0.5-0.5-0.5h-3
		C6.224,16,6,16.224,6,16.5V21H5.5C5.224,21,5,21.224,5,21.5V23H4v-9h16v9H11z"/>
	<path d="M17.5,16h-5c-0.276,0-0.5,0.224-0.5,0.5v3c0,0.276,0.224,0.5,0.5,0.5h5c0.276,0,0.5-0.224,0.5-0.5v-3
		C18,16.224,17.776,16,17.5,16z M17,19h-4v-2h4V19z"/>
</g>
</svg>
