<?xml version="1.0" encoding="utf-8"?>
<!-- Generator: Adobe Illustrator 16.0.0, SVG Export Plug-In . SVG Version: 6.00 Build 0)  -->
<!DOCTYPE svg PUBLIC "-//W3C//DTD SVG 1.1//EN" "http://www.w3.org/Graphics/SVG/1.1/DTD/svg11.dtd">
<svg version="1.1" id="Outline_Version" xmlns="http://www.w3.org/2000/svg" xmlns:xlink="http://www.w3.org/1999/xlink" x="0px"
	 y="0px" width="24px" height="24px" viewBox="0 0 24 24" enable-background="new 0 0 24 24" xml:space="preserve">
<g>
	<path d="M18.364,12.637c-0.195-0.195-0.512-0.195-0.707,0l-4.647,4.646C12.712,17.107,12.37,17,12,17c-1.103,0-2,0.897-2,2
		s0.897,2,2,2s2-0.897,2-2c0-0.37-0.108-0.712-0.283-1.01l4.647-4.646C18.56,13.148,18.56,12.832,18.364,12.637z M12,20
		c-0.551,0-1-0.448-1-1s0.449-1,1-1s1,0.448,1,1S12.551,20,12,20z"/>
	<path d="M4.5,19h-2C2.224,19,2,19.224,2,19.5S2.224,20,2.5,20h2C4.776,20,5,19.776,5,19.5S4.776,19,4.5,19z"/>
	<path d="M19,19.5c0,0.276,0.224,0.5,0.5,0.5h2c0.276,0,0.5-0.224,0.5-0.5S21.776,19,21.5,19h-2C19.224,19,19,19.224,19,19.5z"/>
	<path d="M18.467,16.321c0.08,0.192,0.266,0.309,0.462,0.309c0.064,0,0.129-0.012,0.191-0.038l1.848-0.765
		c0.255-0.105,0.376-0.398,0.271-0.653s-0.399-0.376-0.653-0.271l-1.848,0.765C18.482,15.773,18.361,16.066,18.467,16.321z"/>
	<path d="M14.679,12.532c0.063,0.026,0.127,0.038,0.191,0.038c0.196,0,0.382-0.116,0.462-0.309l0.765-1.848
		c0.105-0.255-0.016-0.548-0.271-0.653c-0.254-0.106-0.548,0.016-0.653,0.271l-0.765,1.848
		C14.303,12.134,14.424,12.427,14.679,12.532z"/>
	<path d="M12,12c0.276,0,0.5-0.224,0.5-0.5v-2C12.5,9.224,12.276,9,12,9s-0.5,0.224-0.5,0.5v2C11.5,11.776,11.724,12,12,12z"/>
	<path d="M8.827,10.031C8.722,9.776,8.428,9.654,8.174,9.761c-0.255,0.105-0.376,0.398-0.271,0.653l0.765,1.848
		c0.08,0.192,0.266,0.309,0.462,0.309c0.064,0,0.129-0.012,0.191-0.038c0.255-0.105,0.376-0.398,0.271-0.653L8.827,10.031z"/>
	<path d="M5.637,11.928c-0.195-0.194-0.512-0.195-0.707-0.001c-0.196,0.195-0.196,0.512-0.001,0.708l1.412,1.416
		c0.098,0.098,0.226,0.146,0.354,0.146c0.128,0,0.255-0.049,0.353-0.146c0.196-0.195,0.196-0.512,0.001-0.708L5.637,11.928z"/>
	<path d="M5.262,15.668l-1.847-0.765c-0.253-0.107-0.548,0.015-0.653,0.271c-0.105,0.255,0.016,0.548,0.271,0.653l1.847,0.765
		c0.063,0.026,0.127,0.038,0.191,0.038c0.196,0,0.382-0.116,0.462-0.309C5.638,16.066,5.517,15.773,5.262,15.668z"/>
	<path d="M12,7C5.383,7,0,12.383,0,19v4.5C0,23.776,0.224,24,0.5,24h23c0.276,0,0.5-0.224,0.5-0.5V19C24,12.383,18.617,7,12,7z
		 M23,23H1v-4C1,12.935,5.935,8,12,8s11,4.935,11,11V23z"/>
</g>
</svg>
