<?xml version="1.0" encoding="utf-8"?>
<!-- Generator: Adobe Illustrator 16.0.0, SVG Export Plug-In . SVG Version: 6.00 Build 0)  -->
<!DOCTYPE svg PUBLIC "-//W3C//DTD SVG 1.1//EN" "http://www.w3.org/Graphics/SVG/1.1/DTD/svg11.dtd">
<svg version="1.1" id="Outline_Version" xmlns="http://www.w3.org/2000/svg" xmlns:xlink="http://www.w3.org/1999/xlink" x="0px"
	 y="0px" width="24px" height="24px" viewBox="0 0 24 24" enable-background="new 0 0 24 24" xml:space="preserve">
<g>
	<path d="M12,0C5.383,0,0,5.383,0,12s5.383,12,12,12s12-5.383,12-12S18.617,0,12,0z M12,23C5.935,23,1,18.065,1,12S5.935,1,12,1
		s11,4.935,11,11S18.065,23,12,23z"/>
	<path d="M13.716,13.011C13.892,12.713,14,12.37,14,12c0-1.103-0.897-2-2-2V6.5C12,6.224,11.776,6,11.5,6S11,6.224,11,6.5v3.778
		c-0.595,0.347-1,0.984-1,1.722c0,1.103,0.897,2,2,2c0.369,0,0.711-0.107,1.008-0.283l4.638,4.636
		C17.744,18.451,17.872,18.5,18,18.5s0.256-0.049,0.354-0.146c0.195-0.195,0.195-0.512,0-0.707L13.716,13.011z M11,12
		c0-0.551,0.449-1,1-1s1,0.449,1,1c0,0.272-0.111,0.519-0.288,0.699c-0.003,0.002-0.006,0.003-0.009,0.006
		c-0.002,0.002-0.003,0.005-0.005,0.007C12.518,12.889,12.272,13,12,13C11.449,13,11,12.551,11,12z"/>
</g>
</svg>
