<?xml version="1.0" encoding="utf-8"?>
<!-- Generator: Adobe Illustrator 17.0.0, SVG Export Plug-In . SVG Version: 6.00 Build 0)  -->
<!DOCTYPE svg PUBLIC "-//W3C//DTD SVG 1.1//EN" "http://www.w3.org/Graphics/SVG/1.1/DTD/svg11.dtd">
<svg version="1.1" id="Layer_1" xmlns="http://www.w3.org/2000/svg" xmlns:xlink="http://www.w3.org/1999/xlink" x="0px" y="0px"
	 width="283.196px" height="109.92px" viewBox="0 0 283.196 109.92" enable-background="new 0 0 283.196 109.92"
	 xml:space="preserve">
<path fill-rule="evenodd" clip-rule="evenodd" d="M96.907,100.8H73.259V89.731h22.359v-9.119H73.259V70.276h23.648v-9.119H73.259
	H59.014v48.763h14.244h23.648V100.8z M118.068,70.276h21.519v-9.119h-21.519h-14.244v48.763h14.244V89.731h20.78v-9.119h-20.78
	V70.276z M146.012,61.157v48.763h14.244V61.157H146.012z M179.949,70.276v39.643h14.244V70.276h13.619v-9.119h-13.619h-14.244
	h-12.754v9.119H179.949z M270.577,107.527V75.127h-2.393v32.399h-43.823V63.55h7.216v-2.393h-7.216h-2.393v2.393v43.977v2.239v0.154
	h46.216h2.393V107.527z M241.303,63.55h22.805v-2.393h-22.805V63.55z M247.618,9.831h3.598V0h-3.598V9.831z M253.898,6.907v14.08
	h3.598V6.907H253.898z M257.496,26.126h-3.598v12.125h3.598V26.126z M260.498,15.504v29.813h3.598V15.504H260.498z M266.873,22.698
	v29.813h3.598V22.698H266.873z M273.236,31.886v32.719h3.598V31.886H273.236z M270.471,57.353h-3.598v15.069h3.598V57.353z
	 M279.599,43.642V58.03h3.598V43.642H279.599z M264.096,81.386V69.26h-3.598v12.126H264.096z M257.595,94.535V73.089h-3.598v21.446
	H257.595z M251.216,88.158v-9.691h-3.598v9.691H251.216z M244.837,84.33V69.26h-3.598V84.33H244.837z M238.175,74.519V51.315h-3.598
	v23.203H238.175z M241.239,43.642V58.03h3.598V43.642H241.239z M247.618,36.704V49.03h3.598V36.704H247.618z M17.899,61.157h-5.062
	H0v48.763h12.837V76.536l18.702,33.384h4.784h12.837V61.157H36.322v33.119L17.899,61.157z"/>
</svg>
